<?xml version="1.0" encoding="UTF-8" standalone="no"?>
<svg
   xmlns:dc="http://purl.org/dc/elements/1.1/"
   xmlns:cc="http://creativecommons.org/ns#"
   xmlns:rdf="http://www.w3.org/1999/02/22-rdf-syntax-ns#"
   xmlns:svg="http://www.w3.org/2000/svg"
   xmlns="http://www.w3.org/2000/svg"
   version="1.1"
   id="svg2"
   viewBox="0 0 28 18.000062"
   height="5.0800176mm"
   width="7.9022222mm">
  <defs
     id="defs4" />
  <metadata
     id="metadata7">
    <rdf:RDF>
      <cc:Work
         rdf:about="">
        <dc:format>image/svg+xml</dc:format>
        <dc:type
           rdf:resource="http://purl.org/dc/dcmitype/StillImage" />
        <dc:title></dc:title>
      </cc:Work>
    </rdf:RDF>
  </metadata>
  <g
     transform="translate(-52.325902,-979.91486)"
     id="layer1">
    <path
       id="path4147"
       d="m 57.576574,979.91534 a 0.80798486,0.67407001 0 0 0 -0.570686,0.17222 c -3.964429,2.88873 -5.044177,6.6474 -4.579177,9.93959 0.465003,3.2922 2.36173,6.15153 4.575757,7.54805 a 0.80798486,0.67407001 0 1 0 0.974638,-1.07527 c -1.689681,-1.06586 -3.529918,-3.68735 -3.945632,-6.6305 -0.415712,-2.94324 0.480066,-6.17463 4.037416,-8.76672 a 0.80798486,0.67407001 0 0 0 -0.492316,-1.18737 z"
       style="color:#000000;font-style:normal;font-variant:normal;font-weight:normal;font-stretch:normal;font-size:medium;line-height:normal;font-family:sans-serif;text-indent:0;text-align:start;text-decoration:none;text-decoration-line:none;text-decoration-style:solid;text-decoration-color:#000000;letter-spacing:normal;word-spacing:normal;text-transform:none;direction:ltr;block-progression:tb;writing-mode:lr-tb;baseline-shift:baseline;text-anchor:start;white-space:normal;clip-rule:nonzero;display:inline;overflow:visible;visibility:visible;opacity:1;isolation:auto;mix-blend-mode:normal;color-interpolation:sRGB;color-interpolation-filters:linearRGB;solid-color:#000000;solid-opacity:1;fill:#ffffff;fill-opacity:1;fill-rule:evenodd;stroke:none;stroke-width:12;stroke-linecap:round;stroke-linejoin:miter;stroke-miterlimit:4;stroke-dasharray:none;stroke-dashoffset:0;stroke-opacity:1;color-rendering:auto;image-rendering:auto;shape-rendering:auto;text-rendering:auto;enable-background:accumulate" />
    <path
       id="path4147-6"
       d="m 75.131703,980.1147 a 0.80795698,0.67395237 0 0 0 -0.548576,1.18748 c 3.557227,2.59163 4.452975,5.82235 4.037276,8.76509 -0.415695,2.94262 -2.255871,5.56377 -3.945497,6.62943 a 0.80795698,0.67395237 0 1 0 0.974345,1.07508 c 2.213949,-1.39637 4.110874,-4.2552 4.57586,-7.54681 0.464985,-3.29153 -0.614989,-7.04965 -4.579279,-9.93787 a 0.80795698,0.67395237 0 0 0 -0.514129,-0.1724 z"
       style="color:#000000;font-style:normal;font-variant:normal;font-weight:normal;font-stretch:normal;font-size:medium;line-height:normal;font-family:sans-serif;text-indent:0;text-align:start;text-decoration:none;text-decoration-line:none;text-decoration-style:solid;text-decoration-color:#000000;letter-spacing:normal;word-spacing:normal;text-transform:none;direction:ltr;block-progression:tb;writing-mode:lr-tb;baseline-shift:baseline;text-anchor:start;white-space:normal;clip-rule:nonzero;display:inline;overflow:visible;visibility:visible;opacity:1;isolation:auto;mix-blend-mode:normal;color-interpolation:sRGB;color-interpolation-filters:linearRGB;solid-color:#000000;solid-opacity:1;fill:#ffffff;fill-opacity:1;fill-rule:evenodd;stroke:none;stroke-width:12;stroke-linecap:round;stroke-linejoin:miter;stroke-miterlimit:4;stroke-dasharray:none;stroke-dashoffset:0;stroke-opacity:1;color-rendering:auto;image-rendering:auto;shape-rendering:auto;text-rendering:auto;enable-background:accumulate" />
    <path
       id="rect4164"
       d="m 60.742987,995.50004 11.469157,0 c 0.440822,0 0.795707,0.44108 0.795707,0.98892 0,0.54783 -0.354885,0.98892 -0.795707,0.98892 l -11.469157,0 c -0.440821,0 -0.795706,-0.44109 -0.795706,-0.98892 0,-0.54784 0.354885,-0.98892 0.795706,-0.98892 z"
       style="opacity:1;fill:#ffffff;fill-opacity:1;fill-rule:nonzero;stroke:none;stroke-width:12;stroke-linecap:round;stroke-linejoin:round;stroke-miterlimit:4;stroke-dasharray:none;stroke-opacity:1" />
    <path
       id="path4166"
       d="m 65.821112,993.38362 c 0.025,-0.0912 -1.679833,-0.9047 -1.59984,-2.47 0.100054,-1.92407 1.88827,-1.6208 2.039796,-3.32382 0.05012,-0.87653 -0.154835,-0.66172 -0.329967,-1.13843 1.615302,0.33439 1.123581,1.81103 1.179884,2.5005 0.07,0.76237 0.569943,0.92497 0.799921,0.90469 0.229976,-0.0205 0.769923,0 0.789922,-0.60992 0.02,-0.60992 -0.309969,-1.08757 -0.309969,-1.08757 0.808589,0.57164 1.104071,1.39524 1.059893,2.22602 -0.05999,1.34169 -1.40986,2.40897 -1.40986,2.40897 -0.01306,0.3132 0.187456,0.42429 0.309969,0.4676 1.866535,-1.17581 2.914084,-2.82988 2.849717,-4.51314 -0.209976,-2.87647 -1.879811,-4.40123 -2.889713,-4.75692 1.557653,3.12333 -0.86069,2.60637 -0.849916,0.0409 -0.119989,-1.46364 -1.023727,-3.12865 -3.578622,-3.22858 0,0 -0.129571,0.13453 -0.05886,0.27469 0,0 1.097742,0.55505 1.077742,1.82569 -0.02671,1.69778 -2.730022,4.67348 -2.739727,6.77969 -0.0087,1.89755 1.699831,3.49663 3.339669,3.96423 0,0 0.379962,0.0962 0.319967,-0.26425 z"
       style="fill:#ffffff;fill-opacity:1;fill-rule:evenodd;stroke:none;stroke-width:1px;stroke-linecap:butt;stroke-linejoin:miter;stroke-opacity:1" />
  </g>
</svg>
